<svg xmlns="http://www.w3.org/2000/svg" width="1024" height="500"
  viewBox="0 0 1024 500" role="img"
  aria-label="iMechanic — from fault code to completed repair">
  <title>iMechanic — From fault code to completed repair</title>
  <!-- Generated by scripts/gen-feature-graphic.mjs. Do not hand-edit: re-run it. -->
  <defs>
    <style type="text/css">
    @font-face {
      font-family: "Inter";
      font-style: normal;
      font-weight: 400 800;
      src: url("../public/fonts/inter-latin.woff2") format("woff2");
    }
    @font-face {
      font-family: "IBM Plex Mono";
      font-style: normal;
      font-weight: 400;
      src: url("../public/fonts/ibm-plex-mono-latin-400.woff2") format("woff2");
    }
    @font-face {
      font-family: "IBM Plex Mono";
      font-style: normal;
      font-weight: 600;
      src: url("../public/fonts/ibm-plex-mono-latin-600.woff2") format("woff2");
    }
    </style>
    <!-- Motif 8, the technical grid: 3.5% hairlines on a 56px cell, faded out
         before the edges exactly as .im-techgrid does on the site. -->
    <pattern id="grid" width="56" height="56" patternUnits="userSpaceOnUse">
      <path d="M56 0V56M0 56H56" stroke="#ffffff" stroke-opacity="0.035"
        stroke-width="1" fill="none" />
    </pattern>
    <radialGradient id="gridFade" cx="0.5" cy="0.15" r="0.9">
      <stop offset="0" stop-color="#ffffff" />
      <stop offset="0.45" stop-color="#ffffff" />
      <stop offset="0.85" stop-color="#000000" />
    </radialGradient>
    <mask id="gridMask">
      <rect width="1024" height="500" fill="url(#gridFade)" />
    </mask>
    <!-- The horizon glow: the light the instrument is lit by. -->
    <radialGradient id="horizon" gradientUnits="userSpaceOnUse"
      cx="512" cy="540" r="900"
      gradientTransform="translate(512 540) scale(1 0.4) translate(-512 -540)">
      <stop offset="0" stop-color="#fbbf24" stop-opacity="0.16" />
      <stop offset="0.42" stop-color="#fbbf24" stop-opacity="0.055" />
      <stop offset="0.75" stop-color="#fbbf24" stop-opacity="0" />
    </radialGradient>
  </defs>
  <rect width="1024" height="500" fill="#0b1220" />
  <rect width="1024" height="500" fill="url(#grid)" mask="url(#gridMask)" />
  <rect width="1024" height="500" fill="url(#horizon)" />
  <!-- Motif 2, the backlit bezel: one lit hairline along the top edge. -->
  <line x1="0" y1="0.5" x2="1024" y2="0.5" stroke="#ffffff"
    stroke-opacity="0.12" stroke-width="1" />
  <!-- Brand row: the amber tile + engine mark the app header and the installed
       icon use, so the graphic is recognisably the same product. -->
  <g>
    <rect x="56" y="40" width="46" height="46" rx="11" fill="#fbbf24" />
    <g transform="translate(66 50) scale(1.1)"
        fill="none" stroke="#0b1220" stroke-width="2"
        stroke-linecap="round" stroke-linejoin="round">
    <path d="M2.7 12.3h1.8v-2.2h3.7V6.7h6.5v3.4h3.7v2.2h2.9v3h-2.9v3.1H4.5v-2.6H2.7z" />
    <path d="m13 12.1-2.1 3.1h2.2l-2 2.6" />
    </g>
    <text x="114" y="72" fill="#ffffff" font-family="Inter"
      font-size="28" font-weight="700" letter-spacing="-0.4">iMechanic</text>
  </g>
  <!-- The landing page's own words, unchanged. -->
  <text x="56" y="200" fill="#ffffff" font-family="Inter"
    font-size="44" font-weight="800" letter-spacing="-1.1">From fault code to</text>
  <text x="56" y="250" fill="#fbbf24" font-family="Inter"
    font-size="44" font-weight="800" letter-spacing="-1.1">completed repair.</text>
  <line x1="56" y1="286" x2="526" y2="286" stroke="#ffffff"
    stroke-opacity="0.12" stroke-width="1" />
  <text x="56" y="326" fill="#cbd5e1" font-family="Inter"
    font-size="19" font-weight="500">Reading codes and clearing them is</text>
  <text x="56" y="352" fill="#e2e8f0" font-family="Inter"
    font-size="19" font-weight="700">free, always.</text>
  <text x="56" y="452" fill="#94a3b8" font-family="IBM Plex Mono"
    font-size="16" letter-spacing="0.6">imechanic.app</text>
  <!-- Motif 2 + 6: the backlit bezel around a data plate. The frame holds the
       real verdict words and one real marketing sample code — nothing here is
       invented, and the caption says it is a sample screen. -->
  <g>
    <rect x="612" y="44" width="356" height="412"
      rx="36" fill="#101a2e" stroke="#ffffff" stroke-opacity="0.14"
      stroke-width="1" />
    <path d="M648 45.5h284"
      stroke="#ffffff" stroke-opacity="0.16" stroke-width="1" fill="none" />
    <rect x="621" y="53" width="338" height="394"
      rx="27" fill="#0b1220" stroke="#ffffff" stroke-opacity="0.08"
      stroke-width="1" />
    <!-- Motif 4, the service-procedure legend: uppercase, mono, amber. -->
    <text x="647" y="83" fill="#fcd34d" font-family="IBM Plex Mono"
      font-size="12" font-weight="600" letter-spacing="1.4">VERDICT</text>
    <line x1="621" y1="99" x2="959"
      y2="99" stroke="#ffffff" stroke-opacity="0.08"
      stroke-width="1" />
      
      <circle cx="667" cy="103" r="20" fill="#fb923c" />
      <circle cx="667" cy="103" r="19" fill="none" stroke="#2e1607" stroke-width="2" />
      <g transform="translate(655.8 91.8) scale(0.93333)"
        fill="none" stroke="#2e1607" stroke-width="2"
        stroke-linecap="round" stroke-linejoin="round">
        <circle cx="10" cy="14.2" r="7.3" />
        <path d="M10 10.3v4.1l2.7 1.6" />
        <path d="M22 2.6a3.4 3.4 0 0 1-4.4 4.4l-1.9 1.9-1.7-1.7 1.9-1.9A3.4 3.4 0 0 1 20.3.9l-2 2 1.7 1.7 2-2z" />
      </g>
      <text x="699" y="109" fill="#fdba74" font-family="IBM Plex Mono"
        font-size="17" font-weight="600" letter-spacing="1.2">REPAIR SOON</text>
      <line x1="621" y1="189" x2="959" y2="189"
        stroke="#ffffff" stroke-opacity="0.08" stroke-width="1" />
      <circle cx="667" cy="165" r="20" fill="#34d399" />
      <circle cx="667" cy="165" r="19" fill="none" stroke="#04231a" stroke-width="2" />
      <g transform="translate(655.8 153.8) scale(0.93333)"
        fill="none" stroke="#04231a" stroke-width="2"
        stroke-linecap="round" stroke-linejoin="round">
        <circle cx="12" cy="12" r="9" />
        <path d="m7.8 12.3 2.9 2.9 5.5-6" />
      </g>
      <text x="699" y="171" fill="#6ee7b7" font-family="IBM Plex Mono"
        font-size="17" font-weight="600" letter-spacing="1.2">DRIVE ON</text>
    <line x1="621" y1="245" x2="959"
      y2="245" stroke="#ffffff" stroke-opacity="0.08" stroke-width="1" />
    <text x="647" y="271" fill="#ffffff" font-family="IBM Plex Mono"
      font-size="26" font-weight="600" letter-spacing="1.6">P0301</text>
    <text x="647" y="295" fill="#cbd5e1" font-family="Inter"
      font-size="15" font-weight="500">Cylinder 1 is misfiring</text>
    <text x="647" y="317" fill="#94a3b8" font-family="IBM Plex Mono"
      font-size="12" letter-spacing="0.6">sample screen</text>
  </g>
</svg>
